<?xml version="1.0" standalone="no"?>
<!DOCTYPE svg PUBLIC "-//W3C//DTD SVG 20010904//EN"
 "http://www.w3.org/TR/2001/REC-SVG-20010904/DTD/svg10.dtd">
<svg version="1.0" xmlns="http://www.w3.org/2000/svg"
 width="512.000000pt" height="512.000000pt" viewBox="0 0 512.000000 512.000000"
 preserveAspectRatio="xMidYMid meet">

<g transform="translate(0.000000,512.000000) scale(0.100000,-0.100000)"
fill="#000000" stroke="none">
<path d="M349 3193 c-75 -70 -118 -134 -153 -231 -101 -280 -8 -642 218 -849
226 -207 515 -205 706 4 53 58 110 167 129 247 l12 50 -418 418 c-230 230
-421 418 -425 418 -4 0 -35 -26 -69 -57z"/>
<path d="M1467 2148 c-154 -209 -298 -609 -314 -873 -20 -339 197 -651 508
-731 103 -26 255 -15 396 30 143 45 229 62 373 76 182 18 431 -9 605 -64 l79
-25 -809 809 c-446 446 -811 810 -812 810 -1 0 -13 -15 -26 -32z"/>
</g>
</svg>
